<svg width="56" height="56" viewBox="0 0 56 56" fill="none" xmlns="http://www.w3.org/2000/svg">
<g id="healthicons:security-worker">
<path id="Vector" fill-rule="evenodd" clip-rule="evenodd" d="M15.75 11.7798C15.75 9.06967 28 7 28 7C28 7 40.25 9.06967 40.25 11.7798C40.25 15.393 38.0217 16.9167 38.0217 16.9167H17.9783C17.9783 16.9167 15.75 15.393 15.75 11.7798ZM29.75 12.25C29.75 12.7141 29.5656 13.1592 29.2374 13.4874C28.9092 13.8156 28.4641 14 28 14C27.5359 14 27.0908 13.8156 26.7626 13.4874C26.4344 13.1592 26.25 12.7141 26.25 12.25C26.25 11.7859 26.4344 11.3408 26.7626 11.0126C27.0908 10.6844 27.5359 10.5 28 10.5C28.4641 10.5 28.9092 10.6844 29.2374 11.0126C29.5656 11.3408 29.75 11.7859 29.75 12.25ZM37.1163 21.3267C38.738 20.0608 38.486 18.6667 38.486 18.6667H17.514C17.514 18.6667 17.2608 20.0608 18.8837 21.3267C18.5849 22.6897 18.5956 24.1023 18.9149 25.4606C19.2342 26.819 19.854 28.0884 20.7287 29.1756C21.6034 30.2627 22.7107 31.14 23.9692 31.7427C25.2276 32.3454 26.6052 32.6582 28.0006 32.6582C29.3959 32.6582 30.7735 32.3454 32.032 31.7427C33.2905 31.14 34.3978 30.2627 35.2725 29.1756C36.1472 28.0884 36.767 26.819 37.0863 25.4606C37.4056 24.1023 37.4162 22.6897 37.1175 21.3267H37.1163ZM28 23.3333C31.1745 23.3333 33.3935 22.967 34.944 22.4397C35.0702 23.4259 34.9848 24.4277 34.6936 25.3783C34.4023 26.3289 33.9119 27.2066 33.255 27.953C32.5981 28.6993 31.7897 29.2971 30.8837 29.7066C29.9777 30.1161 28.9948 30.3279 28.0006 30.3279C27.0063 30.3279 26.0235 30.1161 25.1175 29.7066C24.2115 29.2971 23.4031 28.6993 22.7462 27.953C22.0892 27.2066 21.5988 26.3289 21.3076 25.3783C21.0164 24.4277 20.931 23.4259 21.0572 22.4397C22.6065 22.967 24.8255 23.3333 28 23.3333ZM29.75 35C30.0594 35 30.3562 35.1229 30.575 35.3417C30.7938 35.5605 30.9167 35.8572 30.9167 36.1667V37.779C30.9165 37.9956 30.8561 38.2079 30.7422 38.3921C30.6282 38.5763 30.4653 38.7252 30.2715 38.822L29.75 39.0833L30.4232 42.4492L35.3698 35.0292C35.7082 35.0292 36.0232 35.0315 36.3078 35.0338C42.6137 36.4723 49 39.4053 49 43.8177V49H7V43.8177C7 39.4053 13.6652 36.4385 19.971 35C19.9488 35.0047 20.1857 35.0082 20.6185 35.0117L25.6165 42.5075L26.25 39.0833L25.7285 38.822C25.5347 38.7252 25.3718 38.5763 25.2578 38.3921C25.1439 38.2079 25.0834 37.9956 25.0833 37.779V36.1667C25.0833 35.8572 25.2062 35.5605 25.425 35.3417C25.6438 35.1229 25.9406 35 26.25 35H29.75ZM40.8333 41.2218C40.8333 41.2218 39.2782 40.4448 38.5 39.6667C37.7218 40.4448 36.1667 41.2218 36.1667 41.2218C36.1667 41.2218 36.981 44.3333 38.5 44.3333C40.019 44.3333 40.8333 41.2218 40.8333 41.2218Z" fill="white"/>
</g>
</svg>
