<svg width="56" height="56" viewBox="0 0 56 56" fill="none" xmlns="http://www.w3.org/2000/svg">
<g id="mdi:worker">
<path id="Vector" d="M27.9997 34.9998C17.6863 34.9998 9.33301 39.1765 9.33301 44.3332V48.9998H46.6663V44.3332C46.6663 39.1765 38.313 34.9998 27.9997 34.9998ZM18.6663 20.9998C18.6663 23.4752 19.6497 25.8492 21.4 27.5995C23.1503 29.3498 25.5243 30.3332 27.9997 30.3332C30.475 30.3332 32.849 29.3498 34.5993 27.5995C36.3497 25.8492 37.333 23.4752 37.333 20.9998M26.833 4.6665C26.133 4.6665 25.6663 5.1565 25.6663 5.83317V12.8332H23.333V6.99984C23.333 6.99984 18.083 9.0065 18.083 15.7498C18.083 15.7498 16.333 16.0765 16.333 18.6665H39.6663C39.5497 16.0765 37.9163 15.7498 37.9163 15.7498C37.9163 9.0065 32.6663 6.99984 32.6663 6.99984V12.8332H30.333V5.83317C30.333 5.1565 29.8897 4.6665 29.1663 4.6665H26.833Z" fill="white"/>
</g>
</svg>
