<svg width="24" height="24" viewBox="0 0 24 24" fill="none" xmlns="http://www.w3.org/2000/svg">
<g id="text box">
<rect width="24" height="24" rx="5" fill="#DF0000"/>
<path id="Vector" d="M16.3697 9.29971C16.4414 9.23056 16.4985 9.14783 16.5379 9.05634C16.5772 8.96486 16.598 8.86645 16.5989 8.76687C16.5998 8.66728 16.5809 8.56852 16.5432 8.47633C16.5055 8.38414 16.4499 8.30037 16.3795 8.22992C16.3091 8.15947 16.2254 8.10374 16.1333 8.06598C16.0411 8.02823 15.9423 8.00921 15.8428 8.01003C15.7432 8.01084 15.6448 8.03149 15.5532 8.07075C15.4617 8.11001 15.3789 8.16711 15.3097 8.23871L12.3037 11.2437L9.29871 8.23871C9.23005 8.16502 9.14725 8.10592 9.05525 8.06493C8.96325 8.02394 8.86393 8.00189 8.76323 8.00012C8.66253 7.99834 8.5625 8.01686 8.46911 8.05459C8.37572 8.09231 8.29089 8.14845 8.21967 8.21967C8.14845 8.29089 8.09231 8.37572 8.05459 8.46911C8.01686 8.5625 7.99834 8.66253 8.00012 8.76323C8.00189 8.86393 8.02394 8.96325 8.06493 9.05525C8.10592 9.14725 8.16502 9.23005 8.23871 9.29871L11.2417 12.3047L8.23671 15.3097C8.10423 15.4519 8.03211 15.6399 8.03553 15.8342C8.03896 16.0285 8.11767 16.2139 8.25509 16.3513C8.3925 16.4887 8.57788 16.5675 8.77219 16.5709C8.96649 16.5743 9.15453 16.5022 9.29671 16.3697L12.3037 13.3647L15.3087 16.3707C15.4509 16.5032 15.6389 16.5753 15.8332 16.5719C16.0275 16.5685 16.2129 16.4897 16.3503 16.3523C16.4877 16.2149 16.5665 16.0295 16.5699 15.8352C16.5733 15.6409 16.5012 15.4529 16.3687 15.3107L13.3657 12.3047L16.3697 9.29971Z" fill="white"/>
</g>
</svg>
