<svg width="24" height="24" viewBox="0 0 24 24" fill="none" xmlns="http://www.w3.org/2000/svg">
<g id="carbon:view-filled">
<rect width="24" height="24" rx="3" fill="#FF6600"/>
<g id="Group 18">
<path id="Vector" d="M11.8177 13.8185C12.8218 13.8185 13.6359 13.0045 13.6359 12.0003C13.6359 10.9962 12.8218 10.1821 11.8177 10.1821C10.8135 10.1821 9.99951 10.9962 9.99951 12.0003C9.99951 13.0045 10.8135 13.8185 11.8177 13.8185Z" fill="white"/>
<path id="Vector_2" d="M18.6089 11.8455C18.0743 10.4626 17.1462 9.26664 15.9393 8.40549C14.7324 7.54434 13.2996 7.05571 11.818 7C10.3364 7.05571 8.90362 7.54434 7.69672 8.40549C6.48981 9.26664 5.5617 10.4626 5.02708 11.8455C4.99097 11.9453 4.99097 12.0547 5.02708 12.1545C5.5617 13.5374 6.48981 14.7334 7.69672 15.5945C8.90362 16.4557 10.3364 16.9443 11.818 17C13.2996 16.9443 14.7324 16.4557 15.9393 15.5945C17.1462 14.7334 18.0743 13.5374 18.6089 12.1545C18.645 12.0547 18.645 11.9453 18.6089 11.8455ZM11.818 14.9545C11.2336 14.9545 10.6624 14.7813 10.1765 14.4566C9.69066 14.132 9.31197 13.6705 9.08834 13.1307C8.86472 12.5908 8.80621 11.9967 8.92021 11.4236C9.03422 10.8505 9.31561 10.324 9.72881 9.91082C10.142 9.49762 10.6685 9.21623 11.2416 9.10223C11.8147 8.98822 12.4088 9.04673 12.9486 9.27036C13.4885 9.49398 13.95 9.87267 14.2746 10.3585C14.5993 10.8444 14.7725 11.4156 14.7725 12C14.7713 12.7832 14.4597 13.534 13.9058 14.0879C13.352 14.6417 12.6012 14.9533 11.818 14.9545Z" fill="white"/>
</g>
</g>
</svg>
