<svg width="105" height="105" viewBox="0 0 105 105" fill="none" xmlns="http://www.w3.org/2000/svg">
<rect x="0.5" y="0.5" width="104" height="104" rx="4.5" fill="white"/>
<path d="M44.6203 62.0674H60.6126C61.4155 62.0674 62.0664 61.4165 62.0664 60.6135V44.6212C62.0664 43.8183 61.4155 43.1674 60.6126 43.1674H44.6203C43.8173 43.1674 43.1664 43.8183 43.1664 44.6212V60.6135C43.1664 61.4165 43.8173 62.0674 44.6203 62.0674Z" stroke="#848484" stroke-width="1.5" stroke-linecap="round" stroke-linejoin="round"/>
<path d="M43.1665 58.4321H62.0665M48.0223 58.4321L55.5969 51.3373C55.7275 51.2285 55.8921 51.1689 56.0621 51.1689C56.2321 51.1689 56.3967 51.2285 56.5273 51.3373L62.0665 55.3063" stroke="#848484" stroke-width="1.5" stroke-linecap="round" stroke-linejoin="round"/>
<path d="M48.982 51.1633C50.1864 51.1633 51.1628 50.1869 51.1628 48.9825C51.1628 47.7781 50.1864 46.8018 48.982 46.8018C47.7776 46.8018 46.8013 47.7781 46.8013 48.9825C46.8013 50.1869 47.7776 51.1633 48.982 51.1633Z" stroke="#848484" stroke-width="1.5" stroke-linecap="round" stroke-linejoin="round"/>
<rect x="0.5" y="0.5" width="104" height="104" rx="4.5" stroke="#D5D5D5"/>
</svg>
