<svg width="184" height="184" viewBox="0 0 184 184" fill="none" xmlns="http://www.w3.org/2000/svg">
<rect x="0.5" y="0.5" width="183" height="183" rx="4.5" fill="white"/>
<path d="M78.1922 108.765H106.217C107.624 108.765 108.765 107.624 108.765 106.217V78.1923C108.765 76.7853 107.624 75.6446 106.217 75.6446H78.1922C76.7852 75.6446 75.6445 76.7853 75.6445 78.1923V106.217C75.6445 107.624 76.7852 108.765 78.1922 108.765Z" stroke="#848484" stroke-width="2" stroke-linecap="round" stroke-linejoin="round"/>
<path d="M75.6444 102.396H108.764M84.1537 102.396L97.4272 89.963C97.6561 89.7724 97.9445 89.668 98.2424 89.668C98.5403 89.668 98.8288 89.7724 99.0577 89.963L108.764 96.9182" stroke="#848484" stroke-width="2" stroke-linecap="round" stroke-linejoin="round"/>
<path d="M85.8352 89.6567C87.9458 89.6567 89.6567 87.9458 89.6567 85.8352C89.6567 83.7246 87.9458 82.0137 85.8352 82.0137C83.7246 82.0137 82.0137 83.7246 82.0137 85.8352C82.0137 87.9458 83.7246 89.6567 85.8352 89.6567Z" stroke="#848484" stroke-width="2" stroke-linecap="round" stroke-linejoin="round"/>
<rect x="0.5" y="0.5" width="183" height="183" rx="4.5" stroke="#D5D5D5"/>
</svg>
