<svg width="250" height="184" viewBox="0 0 250 184" fill="none" xmlns="http://www.w3.org/2000/svg">
<g id="streamline:image-picture-landscape-2-photos-photo-landscape-picture-photography-camera-pictures">
<rect width="250" height="184" rx="5" fill="#F3F5F8"/>
<g id="Group">
<g id="Group 17">
<path id="Vector" d="M110.548 108.12H138.572C139.979 108.12 141.12 106.979 141.12 105.572V77.5478C141.12 76.1408 139.979 75.0001 138.572 75.0001H110.548C109.141 75.0001 108 76.1408 108 77.5478V105.572C108 106.979 109.141 108.12 110.548 108.12Z" stroke="#848484" stroke-width="2" stroke-linecap="round" stroke-linejoin="round"/>
<path id="Vector_2" d="M108 101.751H141.12M116.509 101.751L129.783 89.3185C130.012 89.1278 130.3 89.0234 130.598 89.0234C130.896 89.0234 131.184 89.1278 131.413 89.3185L141.12 96.2737" stroke="#848484" stroke-width="2" stroke-linecap="round" stroke-linejoin="round"/>
<path id="Vector_3" d="M118.191 89.0122C120.301 89.0122 122.012 87.3013 122.012 85.1907C122.012 83.0801 120.301 81.3691 118.191 81.3691C116.08 81.3691 114.369 83.0801 114.369 85.1907C114.369 87.3013 116.08 89.0122 118.191 89.0122Z" stroke="#848484" stroke-width="2" stroke-linecap="round" stroke-linejoin="round"/>
</g>
</g>
</g>
</svg>
