<?xml version="1.0" encoding="UTF-8"?>
<svg width="22px" height="22px" viewBox="0 0 22 22" version="1.1" xmlns="http://www.w3.org/2000/svg" xmlns:xlink="http://www.w3.org/1999/xlink">
    <title>Info Icon</title>
    <g id="Login/Sign-up/Reset-Password" stroke="none" stroke-width="1" fill="none" fill-rule="evenodd">
        <g id="toast-icons" transform="translate(-123.000000, -290.000000)" fill="#FFFFFF" fill-rule="nonzero">
            <g id="icons8-info" transform="translate(123.000000, 290.000000)">
                <path d="M11,0 C4.92465217,0 0,4.92465217 0,11 C0,17.0753478 4.92465217,22 11,22 C17.0753478,22 22,17.0753478 22,11 C22,4.92465217 17.0753478,0 11,0 Z M11,4.30434783 C11.7924783,4.30434783 12.4347826,4.94665217 12.4347826,5.73913043 C12.4347826,6.5316087 11.7924783,7.17391304 11,7.17391304 C10.2075217,7.17391304 9.56521739,6.5316087 9.56521739,5.73913043 C9.56521739,4.94665217 10.2075217,4.30434783 11,4.30434783 Z M12.9130435,17.2173913 L11.9565217,17.2173913 L10.0434783,17.2173913 L9.08695652,17.2173913 L9.08695652,16.2608696 L10.0434783,16.2608696 L10.0434783,10.0434783 L9.08695652,10.0434783 L9.08695652,9.08695652 L10.0434783,9.08695652 L11.9565217,9.08695652 L11.9565217,10.0434783 L11.9565217,16.2608696 L12.9130435,16.2608696 L12.9130435,17.2173913 Z" id="Info-Icon"></path>
            </g>
        </g>
    </g>
</svg>