<svg width="184" height="184" viewBox="0 0 184 184" fill="none" xmlns="http://www.w3.org/2000/svg">
<rect width="184" height="184" rx="5" fill="#F3F5F8"/>
<path d="M78.1921 108.765H106.217C107.624 108.765 108.764 107.624 108.764 106.217V78.1923C108.764 76.7853 107.624 75.6446 106.217 75.6446H78.1921C76.785 75.6446 75.6444 76.7853 75.6444 78.1923V106.217C75.6444 107.624 76.785 108.765 78.1921 108.765Z" stroke="#848484" stroke-width="2" stroke-linecap="round" stroke-linejoin="round"/>
<path d="M75.6443 102.396H108.764M84.1536 102.396L97.4271 89.963C97.656 89.7724 97.9444 89.668 98.2423 89.668C98.5402 89.668 98.8287 89.7724 99.0576 89.963L108.764 96.9182" stroke="#848484" stroke-width="2" stroke-linecap="round" stroke-linejoin="round"/>
<path d="M85.8352 89.6567C87.9458 89.6567 89.6567 87.9458 89.6567 85.8352C89.6567 83.7246 87.9458 82.0137 85.8352 82.0137C83.7246 82.0137 82.0137 83.7246 82.0137 85.8352C82.0137 87.9458 83.7246 89.6567 85.8352 89.6567Z" stroke="#848484" stroke-width="2" stroke-linecap="round" stroke-linejoin="round"/>
</svg>
