<svg width="44" height="44" viewBox="0 0 44 44" fill="none" xmlns="http://www.w3.org/2000/svg">
<g clip-path="url(#clip0_1_7808)">
<path d="M16.5 0H0V16.5H16.5V0ZM13.75 13.75H2.75V2.75H13.75V13.75Z" fill="black"/>
<path d="M5.5 5.5H11V11H5.5V5.5ZM0 44H16.5V27.5H0V44ZM2.75 30.25H13.75V41.25H2.75V30.25Z" fill="black"/>
<path d="M5.5 33H11V38.5H5.5V33ZM27.5 0V16.5H44V0H27.5ZM41.25 13.75H30.25V2.75H41.25V13.75Z" fill="black"/>
<path d="M33 5.5H38.5V11H33V5.5ZM5.5 19.25H0V24.75H8.25V22H5.5V19.25ZM19.25 24.75H24.75V30.25H19.25V24.75ZM8.25 19.25H13.75V22H8.25V19.25ZM24.75 33H19.25V35.75H22V38.5H24.75V35.75V33ZM16.5 19.25V22H13.75V24.75H19.25V19.25H16.5ZM22 11H24.75V16.5H22V11ZM24.75 22V24.75H30.25V19.25H22V22H24.75ZM19.25 16.5H22V19.25H19.25V16.5ZM24.75 38.5H30.25V44H24.75V38.5ZM19.25 38.5H22V44H19.25V38.5ZM24.75 30.25H27.5V33H24.75V30.25ZM24.75 8.25V2.75H22V0H19.25V11H22V8.25H24.75ZM33 38.5H35.75V44H33V38.5ZM33 33H38.5V35.75H33V33ZM30.25 35.75H33V38.5H30.25V35.75ZM27.5 33H30.25V35.75H27.5V33ZM38.5 27.5V30.25H41.25V33H44V27.5H41.25H38.5ZM41.25 35.75H38.5V44H44V38.5H41.25V35.75ZM27.5 27.5V30.25H35.75V24.75H30.25V27.5H27.5ZM33 19.25V22H38.5V24.75H44V19.25H38.5H33Z" fill="black"/>
</g>
<defs>
<clipPath id="clip0_1_7808">
<rect width="44" height="44" fill="white"/>
</clipPath>
</defs>
</svg>
