<?xml version="1.0" encoding="UTF-8"?>
<svg width="19px" height="17px" viewBox="0 0 19 17" version="1.1" xmlns="http://www.w3.org/2000/svg" xmlns:xlink="http://www.w3.org/1999/xlink">
    <title>Warning Icon</title>
    <g id="Login/Sign-up/Reset-Password" stroke="none" stroke-width="1" fill="none" fill-rule="evenodd">
        <g id="toast-icons" transform="translate(-125.000000, -351.000000)" fill="#505050" fill-rule="nonzero">
            <g id="icons8-error" transform="translate(125.000000, 351.000000)">
                <path d="M9.5,0 C8.89231569,0 8.37173835,0.374534983 8.15121704,0.90803327 L0.219801646,14.7436314 L0.219801646,14.7450749 C0.0766591868,14.9782996 0.000549654425,15.2472309 0,15.5217391 C0,16.3381601 0.654353058,17 1.46153846,17 C1.49583289,16.9997764 1.53010892,16.998332 1.56430288,16.9956694 L1.56715742,17 L9.5,17 L17.4328427,17 L17.4356971,16.9942259 C17.4698743,16.9973703 17.5041503,16.9992962 17.5384615,17 C18.3456469,17 19,16.3381601 19,15.5217391 C18.9997156,15.2467402 18.9235959,14.9772731 18.7801985,14.7436314 L18.7687802,14.7234206 C18.7683048,14.7229391 18.7678291,14.7224579 18.767353,14.7219771 L10.848783,0.90803327 C10.6282617,0.374534983 10.1076843,0 9.5,0 Z M8.61365658,6.17866848 L10.3863434,6.17866848 L10.2393331,10.9628055 L8.76066688,10.9628055 L8.61365658,6.17866848 Z M9.50285438,12.4251869 C10.1035467,12.4251869 10.4634162,12.7520792 10.4634162,13.3101219 C10.4634162,13.8578176 10.1035467,14.1835087 9.50285438,14.1835087 C8.89777746,14.1835087 8.53515662,13.8578183 8.53515662,13.3101219 C8.53515662,12.7520792 8.89704669,12.4251869 9.50285438,12.4251869 Z" id="Warning-Icon"></path>
            </g>
        </g>
    </g>
</svg>