<?xml version="1.0" encoding="UTF-8"?>
<svg width="24px" height="24px" viewBox="0 0 24 24" version="1.1" xmlns="http://www.w3.org/2000/svg" xmlns:xlink="http://www.w3.org/1999/xlink">
    <title>Fail Icon</title>
    <g id="Login/Sign-up/Reset-Password" stroke="none" stroke-width="1" fill="none" fill-rule="evenodd">
        <g id="toast-icons" transform="translate(-127.000000, -156.000000)" fill="#FFFFFF" fill-rule="nonzero">
            <g id="icons8-unavailable" transform="translate(127.000000, 156.000000)">
                <path d="M12,0 C5.38278261,0 0,5.38330435 0,12 C0,18.6166957 5.38278261,24 12,24 C18.6172174,24 24,18.6166957 24,12 C24,5.38330435 18.6172174,0 12,0 Z M2.60869565,12 C2.60869565,9.88069565 3.324,7.93043478 4.51304348,6.3573913 L17.6426087,19.4869565 C16.0695652,20.676 14.1193043,21.3913043 12,21.3913043 C6.82173913,21.3913043 2.60869565,17.1782609 2.60869565,12 Z M19.4869565,17.6426087 L6.3573913,4.51304348 C7.93043478,3.324 9.88069565,2.60869565 12,2.60869565 C17.1782609,2.60869565 21.3913043,6.82173913 21.3913043,12 C21.3913043,14.1193043 20.676,16.0695652 19.4869565,17.6426087 Z" id="Fail-Icon"></path>
            </g>
        </g>
    </g>
</svg>