<?xml version="1.0" encoding="UTF-8"?>
<svg width="22px" height="22px" viewBox="0 0 22 22" version="1.1" xmlns="http://www.w3.org/2000/svg" xmlns:xlink="http://www.w3.org/1999/xlink">
    <title>Success Icon</title>
    <g id="Login/Sign-up/Reset-Password" stroke="none" stroke-width="1" fill="none" fill-rule="evenodd">
        <g id="toast-icons" transform="translate(-127.000000, -221.000000)" fill="#FFFFFF" fill-rule="nonzero">
            <g id="Group" transform="translate(99.000000, 205.000000)">
                <g id="icons8-checked" transform="translate(28.000000, 16.000000)">
                    <path d="M11,0 C4.9375,0 0,4.9375 0,11 C0,17.0625 4.9375,22 11,22 C17.0625,22 22,17.0625 22,11 C22,4.9375 17.0625,0 11,0 Z M11,2 C15.980469,2 20,6.019531 20,11 C20,15.980469 15.980469,20 11,20 C6.019531,20 2,15.980469 2,11 C2,6.019531 6.019531,2 11,2 Z M16.40625,7.1875 L10,13.5625 L6.71875,10.28125 L5.28125,11.71875 L9.28125,15.71875 L10,16.40625 L10.71875,15.71875 L17.8125,8.59375 L16.40625,7.1875 Z" id="Success-Icon"></path>
                </g>
            </g>
        </g>
    </g>
</svg>